<svg width="3563" height="406" viewBox="0 0 3563 406" fill="none" xmlns="http://www.w3.org/2000/svg">
<path d="M2654.38 0H2584.05V70.3301H2654.38V0Z" fill="#06C168"/>
<path d="M3421.95 202.79C3421.95 210.06 3426.76 215.96 3436.39 220.51C3446.02 225.05 3457.74 229.05 3471.56 232.51C3485.37 235.96 3499.18 240.32 3512.99 245.59C3526.8 250.86 3538.52 259.68 3548.15 272.03C3557.78 284.39 3562.6 299.83 3562.6 318.37C3562.6 346.35 3552.15 367.89 3531.26 382.97C3510.36 398.05 3484.29 405.59 3453.03 405.59C3397.06 405.59 3358.9 383.97 3338.55 340.72L3399.61 306.38C3407.61 330 3425.41 341.81 3453.03 341.81C3478.11 341.81 3490.65 334 3490.65 318.37C3490.65 311.1 3485.83 305.2 3476.2 300.65C3466.57 296.11 3454.85 292.02 3441.04 288.38C3427.23 284.75 3413.42 280.21 3399.61 274.75C3385.8 269.3 3374.08 260.67 3364.44 248.85C3354.81 237.04 3349.99 222.23 3349.99 204.42C3349.99 177.52 3359.89 156.36 3379.7 140.91C3399.51 125.47 3424.13 117.74 3453.57 117.74C3475.74 117.74 3495.91 122.74 3514.08 132.73C3532.25 142.72 3546.6 156.99 3557.15 175.52L3497.18 208.23C3488.46 189.7 3473.92 180.43 3453.57 180.43C3444.49 180.43 3436.94 182.43 3430.95 186.43C3424.95 190.44 3421.95 195.89 3421.95 202.79ZM3194.07 117.75C3223.88 117.75 3248.5 127.75 3267.94 147.73C3287.39 167.72 3297.11 195.34 3297.11 230.59V397.95H3226.79V239.31C3226.79 221.14 3221.88 207.23 3212.07 197.6C3202.26 187.97 3189.17 183.16 3172.82 183.16C3154.65 183.16 3140.11 188.79 3129.21 200.06C3118.31 211.33 3112.86 228.23 3112.86 250.76V397.95H3042.53V125.37H3112.86V155.9C3129.93 130.47 3157.01 117.75 3194.07 117.75ZM2795.84 315.64C2809.83 329.82 2827.37 336.9 2848.44 336.9C2869.52 336.9 2887.15 329.82 2901.32 315.64C2915.5 301.47 2922.58 283.48 2922.58 261.67C2922.58 239.86 2915.5 221.88 2901.32 207.7C2887.15 193.53 2869.52 186.44 2848.44 186.44C2827.36 186.44 2809.82 193.53 2795.84 207.7C2781.85 221.88 2774.85 239.86 2774.85 261.67C2774.85 283.48 2781.85 301.47 2795.84 315.64ZM2950.94 363.89C2922.96 391.69 2888.8 405.59 2848.45 405.59C2808.11 405.59 2774.04 391.69 2746.24 363.89C2718.44 336.09 2704.54 302.02 2704.54 261.68C2704.54 221.34 2718.44 187.27 2746.24 159.46C2774.04 131.66 2808.11 117.75 2848.45 117.75C2888.8 117.75 2922.96 131.65 2950.94 159.46C2978.93 187.26 2992.92 221.34 2992.92 261.68C2992.91 302.01 2978.92 336.08 2950.94 363.89ZM2584.05 397.96V125.38H2654.38V397.96H2584.05ZM2534.44 192.98H2472.84V306.37C2472.84 315.82 2475.2 322.72 2479.93 327.09C2484.65 331.45 2491.56 333.9 2500.64 334.45C2509.73 334.99 2520.99 334.9 2534.44 334.17V397.96C2486.11 403.41 2452.03 398.87 2432.23 384.33C2412.42 369.8 2402.52 343.81 2402.52 306.38V192.99H2355.09V125.39H2402.52V70.3301L2472.85 49.0701V125.39H2534.45V192.98H2534.44ZM2114.67 317C2128.85 331.36 2146.84 338.53 2168.64 338.53C2190.45 338.53 2208.53 331.35 2222.88 317C2237.23 302.65 2244.41 284.2 2244.41 261.67C2244.41 239.14 2237.23 220.69 2222.88 206.34C2208.53 191.99 2190.44 184.81 2168.64 184.81C2146.83 184.81 2128.85 191.99 2114.67 206.34C2100.5 220.7 2093.41 239.14 2093.41 261.67C2093.41 284.2 2100.5 302.65 2114.67 317ZM2244.42 125.38H2314.74V397.96H2244.42V365.79C2223.34 392.32 2193.72 405.58 2155.56 405.58C2119.22 405.58 2088.05 391.68 2062.07 363.88C2036.09 336.08 2023.09 302.01 2023.09 261.67C2023.09 221.33 2036.09 187.26 2062.07 159.45C2088.05 131.65 2119.22 117.74 2155.56 117.74C2193.72 117.74 2223.34 131.01 2244.42 157.54V125.38ZM1881.35 405.59C1840.28 405.59 1806.03 391.78 1778.59 364.16C1751.15 336.54 1737.43 302.38 1737.43 261.67C1737.43 220.96 1751.15 186.8 1778.59 159.18C1806.03 131.56 1840.28 117.75 1881.35 117.75C1907.88 117.75 1932.05 124.11 1953.86 136.83C1975.66 149.55 1992.2 166.63 2003.47 188.08L1942.96 223.52C1937.51 212.25 1929.24 203.35 1918.16 196.8C1907.08 190.26 1894.63 186.99 1880.82 186.99C1859.74 186.99 1842.29 193.98 1828.48 207.98C1814.67 221.97 1807.77 239.87 1807.77 261.68C1807.77 283.12 1814.67 300.84 1828.48 314.83C1842.29 328.82 1859.73 335.82 1880.82 335.82C1894.99 335.82 1907.62 332.64 1918.71 326.28C1929.79 319.92 1938.06 311.11 1943.51 299.84L2004.56 334.73C1992.57 356.17 1975.67 373.35 1953.86 386.25C1932.05 399.14 1907.88 405.59 1881.35 405.59ZM1504.92 315.64C1518.91 329.82 1536.45 336.9 1557.53 336.9C1578.61 336.9 1596.23 329.82 1610.41 315.64C1624.58 301.47 1631.67 283.48 1631.67 261.67C1631.67 239.86 1624.58 221.88 1610.41 207.7C1596.24 193.53 1578.61 186.44 1557.53 186.44C1536.45 186.44 1518.92 193.53 1504.92 207.7C1490.93 221.88 1483.93 239.86 1483.93 261.67C1483.94 283.48 1490.93 301.47 1504.92 315.64ZM1660.02 363.89C1632.04 391.69 1597.87 405.59 1557.53 405.59C1517.19 405.59 1483.12 391.69 1455.31 363.89C1427.51 336.09 1413.61 302.02 1413.61 261.68C1413.61 221.34 1427.51 187.27 1455.31 159.46C1483.11 131.66 1517.19 117.75 1557.53 117.75C1597.87 117.75 1632.03 131.65 1660.02 159.46C1688.01 187.26 1702 221.34 1702 261.68C1702 302.01 1688.01 336.08 1660.02 363.89ZM1293.13 397.96V0H1363.46V397.96H1293.13ZM1158.48 397.96V0H1228.81V397.96H1158.48ZM891.9 258.95H999.3L944.24 103.04L891.9 258.95ZM1048.45 397.96L1024.19 329.27H867.37L844.47 397.96H763.24L896.8 16.3501H990.02L1124.67 397.96H1048.45Z" fill="#1A2237"/>
<rect x="445.846" y="203.154" width="198.154" height="198.154" fill="#03C168"/>
<path fill-rule="evenodd" clip-rule="evenodd" d="M359.154 5H445.846V203.154H359.154L198.154 401.308H99.0769H0V203.154H99.0769L247.692 5H359.154Z" fill="#03C168"/>
</svg>